<?xml version="1.0" encoding="UTF-8"?><svg id="Layer_1" xmlns="http://www.w3.org/2000/svg" viewBox="0 0 50 38.64"><path d="M42.94,27.7c-.68-1.36-.59-2.77-.5-4.26.03-.57.05-1.24-.12-1.88-.23-.9-.85-1.6-1.68-1.91-1.1-.42-2.42-.32-3.37.23-.72.42-1.17,1.07-1.29,1.86l.9.14c.08-.52.37-.93.85-1.22.71-.42,1.75-.48,2.59-.17.56.21.96.67,1.12,1.29.07.27.1.55.11.83-.95.41-1.95.55-3.01.69-.13.02-.27.04-.4.06-.06,0-.12.02-.17.02-.75.1-1.67.23-2.02,1.22-.13.38-.16.79-.1,1.17.05.49-.01.96-.18,1.31-.15.31-.44.54-.79.63-.33.08-.65.02-.91-.17-.3-.22-.36-.68-.36-1.02h0v-.08s0,0,0,0v-.99s0,0,0,0v-.86s0-.57,0-.57c0-.38,0-.76,0-1.14,0-.49,0-1.11-.21-1.68-.17-.47-.52-.92-.97-1.25-.55-.4-1.28-.6-1.99-.54-.9.07-1.72.51-2.31,1.15v-8.55h0v-.68c0-.09-.08-.17-.17-.17h-5.78c-.09,0-.17.08-.17.17v.68h0v6.41h.91v-5.96h2.11s.03,0,.04,0c.01,0,.03,0,.04,0h2.11v15.4h.91v-5.02h0c-.05-1.24,1.06-2.42,2.38-2.52.5-.04,1.01.1,1.39.37.3.22.54.52.65.82.15.42.15.92.15,1.37,0,.38,0,.76,0,1.14v.57s0,1.93,0,1.93h0s0,0,0,0c0,.79.25,1.4.73,1.75.34.26.75.39,1.18.39.16,0,.33-.02.49-.06.61-.15,1.13-.57,1.4-1.12.05-.11.09-.21.13-.32.62.54,1.47.84,2.28.84.3,0,.59-.04.87-.13.04-.01.08-.03.13-.04.66-.23,1.27-.67,1.73-1.24.1.5.26,1.01.51,1.51l.81-.41ZM39.59,26.97s-.06.02-.1.03c-.75.23-1.77-.03-2.37-.6-.2-.19-.33-.46-.39-.75,0-.05-.01-.1-.02-.15h0c-.02-.2,0-.41.08-.6.15-.42.51-.51,1.29-.62.06,0,.12-.02.18-.02.13-.02.27-.04.4-.06.94-.13,1.91-.26,2.86-.61-.03.46-.05.92-.05,1.38-.26.88-1.02,1.69-1.88,1.99Z" fill="#4e6688"/><path d="M22.64,8.8c.06.11.18.18.3.18h4.22c.12,0,.24-.07.3-.18l1.2-2.13c.06-.1.06-.22,0-.33L25.44.05c-.04-.08-.17-.05-.17.04v5.44c0,.07.04.14.11.18.2.12.33.36.3.62-.03.29-.27.52-.55.55-.38.04-.7-.25-.7-.63,0-.23.13-.43.31-.54.06-.04.1-.11.1-.18V.09c0-.09-.12-.12-.17-.04l-3.23,6.3c-.05.1-.05.23,0,.33l1.2,2.13Z" fill="#4e6688"/><rect x="22.45" y="9.41" width="5.21" height="1.3" rx=".17" ry=".17" fill="#4e6688"/><path d="M27.2,33.08h-4.3v-6.77h0v-2.08c0-.38,0-.76,0-1.14,0-.49,0-1.11-.21-1.68-.17-.47-.52-.92-.97-1.25-.55-.4-1.28-.6-1.99-.54-.91.07-1.75.53-2.35,1.19l-.02-1.17h-.91s.09,5.83.09,5.83h0c0,.73-.08,1.44-.63,1.82-.38.26-.91.31-1.33.12-.44-.2-.77-.67-.9-1.25-.07-.31-.09-.62-.1-.94,0-.02.01-.05.02-.07h-.02c0-.39.03-.79.06-1.2.01-.18.03-.35.04-.53.03-.57.05-1.24-.12-1.88-.26-1.01-1-1.41-1.68-1.67-1-.38-2.26-.26-3.22.3-.8.47-1.32,1.2-1.45,2.05l.9.14c.11-.73.61-1.16,1.01-1.4.73-.43,1.69-.52,2.44-.23.7.26.99.54,1.12,1.04.07.27.1.55.11.83-1.07.49-2.22.83-3.41,1-1.17.17-1.91.67-2.2,1.49-.3.86-.08,1.84.56,2.45.57.55,1.34.75,2.07.75.43,0,.85-.07,1.2-.18.04-.01.08-.03.13-.04.68-.24,1.29-.78,1.74-1.41.23.73.71,1.31,1.33,1.59.29.13.61.2.93.2.46,0,.92-.13,1.29-.4.93-.64,1.03-1.76,1.02-2.66h0s-.03-2.35-.03-2.35c-.03-1.24,1.07-2.4,2.38-2.49.5-.04,1.01.1,1.39.37.3.22.54.52.65.82.15.42.15.92.15,1.37,0,.38,0,.76,0,1.14v.57s0,3.17,0,3.17v7.2h0v.45c0,1.67,1.35,3.02,3.02,3.02h0s.03,0,.04,0c.01,0,.03,0,.04,0h0c1.67,0,3.02-1.35,3.02-3.02v-.28c0-.09-.08-.17-.17-.17h-5.04v-1.18h4.43c.43,0,.78-.35.78-.78v-3.64h-.91v3.51ZM10.85,27.2s-.06.02-.1.03c-.76.23-1.78.21-2.37-.36-.37-.36-.51-.98-.33-1.5.17-.48.65-.78,1.47-.89,1.13-.16,2.22-.46,3.25-.89,0,.09-.01.18-.02.28-.03.4-.06.8-.06,1.2-.35,1.05-1.18,1.89-1.84,2.12Z" fill="#4e6688"/></svg>