<?xml version="1.0" encoding="UTF-8"?><svg id="Layer_1" xmlns="http://www.w3.org/2000/svg" viewBox="0 0 22.39 17.3"><path d="M18.98,12.29c-.29-.59-.26-1.2-.22-1.85.01-.25.02-.54-.05-.82-.1-.39-.37-.69-.73-.83-.48-.18-1.05-.14-1.46.1-.31.18-.51.46-.56.81l.39.06c.03-.23.16-.4.37-.53.31-.18.76-.21,1.12-.07.24.09.42.29.49.56.03.12.04.24.05.36-.41.18-.85.24-1.31.3-.06,0-.12.02-.17.02-.03,0-.05,0-.08.01-.32.04-.73.1-.88.53-.06.17-.07.34-.04.51.02.21,0,.42-.08.57-.06.13-.19.24-.34.27-.14.04-.28,0-.39-.08-.13-.1-.16-.3-.16-.44h0v-.03s0,0,0,0v-.43s0,0,0,0v-.37s0-.25,0-.25c0-.17,0-.33,0-.5,0-.21,0-.48-.09-.73-.07-.2-.23-.4-.42-.54-.24-.17-.55-.26-.86-.24-.39.03-.75.22-1,.5v-3.71h0v-.29s-.03-.07-.07-.07h-2.51s-.07.03-.07.07v.29h0v2.78h.39v-2.58h.91s.01,0,.02,0c0,0,.01,0,.02,0h.91v6.68h.39v-2.18h0c-.02-.54.46-1.05,1.03-1.09.22-.02.44.04.6.16.13.09.24.23.28.36.07.18.07.4.07.59,0,.17,0,.33,0,.5v.25s0,.84,0,.84h0s0,0,0,0c0,.34.11.61.32.76.15.11.33.17.51.17.07,0,.14,0,.21-.03.26-.06.49-.25.61-.49.02-.05.04-.09.05-.14.27.23.64.36.99.36.13,0,.26-.02.38-.05.02,0,.04-.01.05-.02.29-.1.55-.29.75-.54.04.22.11.44.22.65l.35-.18ZM17.53,11.97s-.03,0-.04.01c-.33.1-.77-.01-1.03-.26-.09-.08-.15-.2-.17-.33,0-.02,0-.04,0-.06h0c0-.09,0-.18.03-.26.06-.18.22-.22.56-.27.03,0,.05,0,.08-.01.06,0,.12-.02.17-.02.41-.06.83-.11,1.24-.26-.01.2-.02.4-.02.6-.11.38-.44.74-.81.86Z" fill="#4e6688"/><path d="M10.17,4.09s.08.08.13.08h1.83c.05,0,.1-.03.13-.08l.52-.92s.03-.1,0-.14l-1.4-2.73s-.07-.02-.07.02v2.36s.02.06.05.08c.09.05.14.15.13.27-.01.12-.12.22-.24.24-.17.02-.31-.11-.31-.27,0-.1.05-.19.14-.24.03-.02.04-.05.04-.08V.31s-.05-.05-.07-.02l-1.4,2.73s-.02.1,0,.14l.52.92Z" fill="#4e6688"/><rect x="10.09" y="4.36" rx=".07" ry=".07" fill="#4e6688"/><path d="M12.15,14.62h-1.86v-2.94h0v-.9c0-.17,0-.33,0-.5,0-.21,0-.48-.09-.73-.07-.2-.23-.4-.42-.54-.24-.17-.55-.26-.86-.24-.4.03-.76.23-1.02.51v-.51s-.4,0-.4,0l.04,2.52h0c0,.31-.03.62-.27.79-.16.11-.39.13-.57.05-.19-.09-.33-.29-.39-.54-.03-.13-.04-.27-.04-.41,0-.01,0-.02,0-.03h0c0-.17.01-.34.03-.52,0-.08.01-.15.02-.23.01-.25.02-.54-.05-.82-.11-.44-.43-.61-.73-.72-.43-.16-.98-.11-1.4.13-.35.2-.57.52-.63.89l.39.06c.05-.32.26-.51.44-.61.32-.19.73-.22,1.06-.1.3.11.43.23.49.45.03.12.04.24.05.36-.46.21-.96.36-1.48.43-.51.07-.83.29-.95.65-.13.37-.03.8.24,1.06.25.24.58.32.9.32.19,0,.37-.03.52-.08.02,0,.04-.01.06-.02.3-.1.56-.34.75-.61.1.31.31.57.58.69.13.06.27.09.4.09.2,0,.4-.06.56-.17.4-.28.45-.76.44-1.15h0s-.02-1.02-.02-1.02c-.01-.54.47-1.04,1.03-1.08.22-.02.44.04.6.16.13.09.24.23.28.36.07.18.07.4.07.59,0,.17,0,.33,0,.5v.25s0,1.37,0,1.37v3.12h0v.19c0,.72.59,1.31,1.31,1.31h0s.01,0,.02,0c0,0,.01,0,.02,0h0c.72,0,1.31-.59,1.31-1.31v-.12s-.03-.07-.07-.07h-2.19v-.51h1.92c.19,0,.34-.15.34-.34v-1.58h-.39v1.52ZM5.06,12.07s-.03,0-.04.01c-.33.1-.77.09-1.03-.15-.16-.15-.22-.43-.14-.65.07-.21.28-.34.64-.39.49-.07.96-.2,1.41-.39,0,.04,0,.08,0,.12-.01.17-.03.35-.03.52-.15.46-.51.82-.8.92Z" fill="#4e6688"/></svg>
